<svg viewBox="0 0 463 497" fill="none" xmlns="http://www.w3.org/2000/svg">
<path d="M226.739 1.40021C169.704 9.24134 121.724 49.0071 103.615 103.522C95.9605 126.578 95.2137 135.073 95.2137 203.216V256.704H47.6069H0V304.777V352.851H47.6069H95.2137V424.728V496.605H142.821H190.427L190.614 319.433V152.272C190.614 120.767 215.981 95.6805 244.802 95.6805C250.053 95.6805 245.035 95.6805 303.377 95.6805H367.32V152.155C367.32 204.149 367.553 171.875 367.553 203.729C367.553 235.584 334.998 255.957 323.447 256.237C311.895 256.517 285.921 256.517 285.921 256.517L248.302 256.797V304.871V352.851H280.32C315.699 352.851 329.607 352.011 343.143 349.024C384.402 340.062 420.247 314.205 442.464 277.147C451.612 261.931 459.359 239.621 461.973 220.952C462.627 216.284 463 191.921 463 154.396V95.2137H415.673L368.253 95.3071L367.973 47.6069L367.786 1.02956e-05L301.697 0.093377C252.783 0.186724 233.367 0.466744 226.739 1.40021Z" fill="black"/>
</svg>
